<?xml version="1.0" encoding="UTF-8" standalone="no"?>
<!-- Generator: Adobe Illustrator 27.9.0, SVG Export Plug-In . SVG Version: 6.00 Build 0)  -->

<svg
   version="1.1"
   id="Слой_1"
   x="0px"
   y="0px"
   viewBox="0 0 595.28 841.89"
   style="enable-background:new 0 0 595.28 841.89;"
   xml:space="preserve"
   sodipodi:docname="groups.svg"
   inkscape:version="1.3.2 (091e20e, 2023-11-25, custom)"
   xmlns:inkscape="http://www.inkscape.org/namespaces/inkscape"
   xmlns:sodipodi="http://sodipodi.sourceforge.net/DTD/sodipodi-0.dtd"
   xmlns="http://www.w3.org/2000/svg"
   xmlns:svg="http://www.w3.org/2000/svg"><defs
   id="defs14" /><sodipodi:namedview
   id="namedview14"
   pagecolor="#ffffff"
   bordercolor="#000000"
   borderopacity="0.25"
   inkscape:showpageshadow="2"
   inkscape:pageopacity="0.0"
   inkscape:pagecheckerboard="0"
   inkscape:deskcolor="#d1d1d1"
   inkscape:zoom="0.33050222"
   inkscape:cx="-282.90279"
   inkscape:cy="757.93742"
   inkscape:window-width="1920"
   inkscape:window-height="1001"
   inkscape:window-x="-9"
   inkscape:window-y="-9"
   inkscape:window-maximized="1"
   inkscape:current-layer="Слой_1" />
<style
   type="text/css"
   id="style1">
	.st0{fill:#FFFFFF;stroke:#FFFFFF;stroke-width:7;stroke-miterlimit:10;}
	.st1{fill:#FFFFFF;}
	.st2{fill:none;stroke:#FFFFFF;stroke-width:7;stroke-miterlimit:10;}
</style>
<path
   class="st0"
   d="m 901.16026,173.24949 v 116.21 c 0,6.33 -5.18,11.51 -11.51,11.51 h -66.79 c 7.08,0 12.87,-5.79 12.87,-12.87 v -81.52 c 0,-7.08 -5.79,-12.87 -12.87,-12.87 h -46.12 c -7.08,0 -12.87,5.79 -12.87,12.87 v 81.52 c 0,7.08 5.79,12.87 12.87,12.87 h -66.79 c -6.33,0 -11.51,-5.18 -11.51,-11.51 v -116.21 c -14.5,-1.25 -21.46,-19.12 -10.91,-29.86 l 99.72,-101.459999 c 6.9,-7.01 18.2,-7.01 25.1,0 l 99.72,101.459999 c 10.56,10.73 3.6,28.6 -10.91,29.86 z"
   id="path1"
   style="display:none" />
<path
   class="st0"
   d="m 910.16,492.94 c 0,-13.87 10.57,-25.27 24.1,-26.58 -3.38,-17.06 -9.94,-32.97 -19.06,-47.08 -4.58,3.68 -10.39,5.88 -16.71,5.88 -14.75,0 -26.71,-11.96 -26.71,-26.71 0,-6.64 2.43,-12.71 6.44,-17.38 -15.02,-10.4 -32.22,-17.86 -50.8,-21.54 -1.41,13.42 -12.76,23.88 -26.56,23.88 -13.8,0 -25.14,-10.46 -26.56,-23.88 -18.72,3.71 -36.06,11.26 -51.17,21.8 3.88,4.64 6.21,10.6 6.21,17.12 0,14.75 -11.96,26.71 -26.71,26.71 -6.15,0 -11.81,-2.08 -16.32,-5.58 -9.01,14.04 -15.51,29.86 -18.86,46.8 13.4,1.43 23.84,12.77 23.84,26.55 0,13.78 -10.44,25.12 -23.84,26.55 3.35,16.94 9.85,32.76 18.86,46.8 4.51,-3.49 10.17,-5.58 16.32,-5.58 14.75,0 26.71,11.96 26.71,26.71 0,6.52 -2.34,12.49 -6.21,17.12 15.1,10.53 32.43,18.08 51.15,21.79 1.31,-13.53 12.71,-24.1 26.58,-24.1 13.87,0 25.27,10.57 26.58,24.1 18.56,-3.68 35.76,-11.13 50.78,-21.53 -4.01,-4.67 -6.44,-10.74 -6.44,-17.38 0,-14.75 11.96,-26.71 26.71,-26.71 6.33,0 12.14,2.21 16.71,5.88 9.11,-14.11 15.68,-30.02 19.06,-47.08 -13.52,-1.29 -24.1,-12.69 -24.1,-26.56 z m -109.29,67.77 c -37.43,0 -67.77,-30.34 -67.77,-67.77 0,-37.43 30.34,-67.77 67.77,-67.77 37.43,0 67.77,30.34 67.77,67.77 0,37.43 -30.34,67.77 -67.77,67.77 z"
   id="path2"
   style="display:none" />
<g
   id="g5"
   style="display:none">
	<g
   id="XMLID_00000011742811746043637610000010272531157391395471_">
		<g
   id="g3">
			<path
   class="st1"
   d="m 952.32,834.99 c 0,41.84 -18.94,79.25 -48.71,104.13 -2.26,-46.07 -40.33,-82.74 -86.97,-82.74 -46.64,0 -84.72,36.67 -86.98,82.74 -29.76,-24.88 -48.7,-62.29 -48.7,-104.13 0,-74.94 60.74,-135.68 135.68,-135.68 74.93,0 135.68,60.74 135.68,135.68 z m -94.6,-41.08 c 0,-22.69 -18.39,-41.08 -41.08,-41.08 -22.69,0 -41.08,18.39 -41.08,41.08 0,22.69 18.39,41.08 41.08,41.08 22.69,0 41.08,-18.39 41.08,-41.08 z"
   id="path3" />
		</g>
		<g
   id="g4">
			<path
   class="st2"
   d="m 816.64,699.31 c -74.94,0 -135.68,60.74 -135.68,135.68 0,41.84 18.94,79.25 48.7,104.13 2.26,-46.07 40.34,-82.74 86.98,-82.74 46.64,0 84.71,36.67 86.97,82.74 29.77,-24.88 48.71,-62.29 48.71,-104.13 0,-74.94 -60.75,-135.68 -135.68,-135.68 z"
   id="path4" />
			<circle
   class="st2"
   cx="816.64001"
   cy="793.90997"
   r="41.080002"
   id="circle4" />
		</g>
	</g>
</g>
<g
   id="g9"
   style="display:none">
	<g
   id="XMLID_00000017492092989111627160000017315594955516379780_">
		<g
   id="g6">
			<path
   class="st1"
   d="m 952.14,1410.7 v 141 c 0,6.6 -5.4,12 -12,12 H 747.17 L 715,1622.95 c -2.95,5.43 -11.19,3.34 -11.19,-2.84 v -56.41 h -10.67 c -6.6,0 -12,-5.4 -12,-12 v -141 c 0,-6.6 5.4,-12 12,-12 h 247 c 6.6,0 12,5.4 12,12 z m -38.62,72.59 c 0,-10.3 -8.35,-18.65 -18.65,-18.65 -10.3,0 -18.65,8.35 -18.65,18.65 0,10.3 8.35,18.65 18.65,18.65 10.3,0 18.65,-8.35 18.65,-18.65 z m -77.6,0 c 0,-10.3 -8.35,-18.65 -18.65,-18.65 -10.3,0 -18.65,8.35 -18.65,18.65 0,10.3 8.35,18.65 18.65,18.65 10.3,0 18.65,-8.35 18.65,-18.65 z m -78.87,0 c 0,-10.3 -8.35,-18.65 -18.64,-18.65 -10.3,0 -18.65,8.35 -18.65,18.65 0,10.3 8.35,18.65 18.65,18.65 10.29,0 18.64,-8.35 18.64,-18.65 z"
   id="path5" />
		</g>
		<g
   id="g8">
			<path
   class="st2"
   d="m 952.14,1410.7 v 141 c 0,6.6 -5.4,12 -12,12 H 747.17 L 715,1622.95 c -2.95,5.43 -11.19,3.34 -11.19,-2.84 v -56.41 h -10.67 c -6.6,0 -12,-5.4 -12,-12 v -141 c 0,-6.6 5.4,-12 12,-12 h 247 c 6.6,0 12,5.4 12,12 z"
   id="path6" />
			<path
   class="st2"
   d="m 757.05,1483.29 c 0,10.3 -8.35,18.65 -18.64,18.65 -10.3,0 -18.65,-8.35 -18.65,-18.65 0,-10.3 8.35,-18.65 18.65,-18.65 10.29,0 18.64,8.35 18.64,18.65 z"
   id="path7" />
			<circle
   class="st2"
   cx="817.27002"
   cy="1483.29"
   r="18.65"
   id="circle7" />
			<circle
   class="st2"
   cx="894.87"
   cy="1483.29"
   r="18.65"
   id="circle8" />
		</g>
	</g>
</g>
<circle
   class="st2"
   cx="817.27002"
   cy="834.98999"
   r="155.96001"
   id="circle9"
   style="display:none" />
<g
   id="g14"
   style="display:inline">
	<g
   id="XMLID_00000167394996648819821060000003573450490806816445_">
		<g
   id="g10">
			<path
   class="st1"
   d="m 953.59,1194.99 c 0,15.01 -2.45,29.44 -6.95,42.93 -8.14,-14.01 -23.29,-23.43 -40.66,-23.43 -15.14,0 -28.61,7.17 -37.2,18.3 -14.31,-10.32 -31.88,-16.4 -50.88,-16.4 -19.58,0 -37.63,6.48 -52.18,17.38 -8.55,-11.68 -22.36,-19.28 -37.95,-19.28 -16.45,0 -30.92,8.46 -39.31,21.26 -4.05,-12.87 -6.24,-26.55 -6.24,-40.76 0,-74.93 60.75,-135.68 135.68,-135.68 74.94,0 135.69,60.75 135.69,135.68 z m -21.61,-26.17 c 0,-14.36 -11.64,-26 -26,-26 -14.36,0 -26,11.64 -26,26 0,14.36 11.64,26 26,26 14.36,0 26,-11.64 26,-26 z m -73,-14.91 c 0,-22.69 -18.39,-41.08 -41.08,-41.08 -22.69,0 -41.08,18.39 -41.08,41.08 0,22.69 18.39,41.08 41.08,41.08 22.69,0 41.08,-18.39 41.08,-41.08 z m -105.21,14.91 c 0,-14.36 -11.64,-26 -26,-26 -14.35,0 -26,11.64 -26,26 0,14.36 11.65,26 26,26 14.36,0 26,-11.64 26,-26 z"
   id="path9" />
		</g>
		<g
   id="g13">
			<circle
   class="st2"
   cx="905.97998"
   cy="1168.8199"
   r="26"
   id="circle10" />
			<path
   class="st2"
   d="m 905.98,1214.49 c 17.37,0 32.52,9.42 40.66,23.43 4.5,-13.49 6.95,-27.92 6.95,-42.93 0,-74.93 -60.75,-135.68 -135.69,-135.68 -74.93,0 -135.68,60.75 -135.68,135.68 0,14.21 2.19,27.89 6.24,40.76 8.39,-12.8 22.86,-21.26 39.31,-21.26 15.59,0 29.4,7.6 37.95,19.28 14.55,-10.9 32.6,-17.38 52.18,-17.38 19,0 36.57,6.08 50.88,16.4 8.59,-11.13 22.06,-18.3 37.2,-18.3 z"
   id="path10" />
			<circle
   class="st2"
   cx="817.90002"
   cy="1153.91"
   r="41.080002"
   id="circle11" />
			<circle
   class="st2"
   cx="727.77002"
   cy="1168.8199"
   r="26"
   id="circle12" />
			<circle
   class="st2"
   cx="817.90002"
   cy="1194.8199"
   r="155.96001"
   id="circle13" />
		</g>
	</g>
</g>
</svg>
